<?xml version="1.0" standalone="no"?>
<!DOCTYPE svg PUBLIC "-//W3C//DTD SVG 20010904//EN"
 "http://www.w3.org/TR/2001/REC-SVG-20010904/DTD/svg10.dtd">
<svg version="1.0" xmlns="http://www.w3.org/2000/svg"
 width="2000.000000pt" height="2000.000000pt" viewBox="0 0 2000.000000 2000.000000"
 preserveAspectRatio="xMidYMid meet">
<metadata>
Created by potrace 1.11, written by Peter Selinger 2001-2013
</metadata>
<g transform="translate(0.000000,2000.000000) scale(0.100000,-0.100000)"
fill="#000000" stroke="none">
<path d="M9947 19934 c-1 -1 -117 -4 -257 -8 -140 -4 -273 -8 -295 -10 -22 -2
-85 -7 -140 -10 -55 -4 -113 -9 -130 -11 -16 -2 -61 -7 -100 -10 -116 -11
-221 -22 -318 -36 -37 -5 -86 -11 -110 -14 -23 -3 -53 -7 -67 -10 -14 -3 -45
-7 -70 -10 -25 -3 -56 -8 -70 -11 -14 -2 -38 -7 -55 -9 -16 -3 -68 -13 -115
-21 -47 -9 -96 -18 -110 -20 -14 -3 -32 -7 -40 -9 -8 -2 -30 -7 -48 -10 -18
-3 -65 -12 -105 -21 -39 -8 -83 -18 -97 -20 -77 -15 -451 -112 -610 -159 -466
-136 -892 -295 -1365 -510 -73 -33 -459 -225 -535 -266 -204 -111 -442 -249
-580 -337 -91 -58 -451 -300 -506 -340 -175 -126 -249 -182 -278 -207 -6 -6
-27 -22 -46 -35 -19 -13 -37 -27 -40 -30 -3 -3 -41 -34 -85 -70 -116 -92 -179
-144 -185 -151 -3 -3 -43 -38 -90 -79 -79 -67 -189 -165 -285 -255 -198 -184
-502 -498 -691 -715 -21 -25 -43 -50 -49 -56 -5 -6 -30 -35 -55 -64 -25 -30
-59 -70 -75 -90 -17 -19 -66 -80 -110 -135 -43 -55 -95 -120 -115 -145 -184
-231 -483 -674 -693 -1030 -146 -247 -358 -653 -457 -875 -12 -27 -32 -72 -45
-100 -258 -571 -528 -1394 -629 -1915 -2 -14 -14 -70 -26 -125 -24 -118 -59
-306 -66 -355 -2 -19 -9 -57 -14 -85 -5 -27 -12 -70 -15 -95 -7 -53 -15 -105
-20 -140 -7 -42 -24 -191 -30 -255 -3 -33 -8 -71 -10 -85 -2 -14 -7 -65 -10
-115 -4 -49 -8 -101 -10 -115 -3 -22 -11 -150 -21 -365 -5 -98 -4 -715 0 -800
3 -38 7 -126 11 -195 3 -69 8 -141 10 -160 2 -19 7 -73 10 -120 4 -47 8 -96
10 -110 2 -14 7 -52 10 -85 3 -33 10 -94 15 -135 5 -41 12 -92 15 -114 6 -54
14 -111 26 -186 6 -36 12 -76 14 -90 4 -24 39 -224 50 -285 11 -58 54 -261 70
-330 9 -38 18 -78 20 -87 7 -34 77 -304 97 -373 11 -38 24 -88 29 -110 6 -22
18 -65 29 -95 10 -30 48 -145 84 -255 210 -639 479 -1237 824 -1835 109 -188
306 -501 414 -656 113 -164 373 -511 463 -619 154 -185 201 -241 210 -251 5
-6 39 -44 75 -85 250 -284 594 -628 865 -864 44 -39 82 -73 85 -76 11 -12 251
-210 340 -279 52 -41 100 -78 105 -83 76 -62 369 -272 520 -374 503 -339 1204
-715 1705 -915 41 -16 89 -36 105 -43 17 -7 80 -32 140 -55 61 -23 126 -48
145 -55 377 -147 1052 -336 1515 -424 61 -11 120 -23 131 -25 12 -2 39 -7 60
-10 22 -4 64 -11 94 -16 30 -5 75 -12 100 -15 25 -3 52 -8 60 -10 14 -3 54 -9
150 -21 19 -2 67 -8 105 -13 39 -6 102 -13 140 -16 39 -4 84 -8 100 -10 37 -4
141 -14 215 -20 63 -5 236 -15 360 -21 109 -5 712 -5 810 0 141 8 295 17 340
21 25 2 81 6 125 10 44 3 96 7 115 10 19 2 60 7 90 10 70 7 105 12 210 25 122
16 152 20 180 25 14 3 43 7 65 10 36 5 63 9 135 21 14 3 63 12 110 20 47 9 96
18 110 20 14 3 90 19 170 35 80 17 154 33 165 35 152 28 668 175 940 267 302
102 658 241 885 345 36 16 88 39 115 52 314 140 782 395 1132 616 248 156 578
386 757 528 614 484 1014 865 1505 1431 21 25 104 124 181 219 8 10 21 24 28
31 6 8 12 16 12 19 0 3 8 14 18 24 21 21 260 340 327 437 258 371 449 680 642
1040 127 236 374 763 440 939 8 23 21 55 28 71 53 124 246 673 261 740 2 11 8
31 14 45 17 45 158 574 175 661 2 9 13 59 24 110 11 52 23 110 26 129 3 19 8
42 10 50 2 8 7 31 10 50 4 19 13 69 20 110 22 116 34 189 41 240 2 14 11 78
19 130 2 14 6 45 10 70 3 25 7 61 10 80 10 76 15 117 20 175 3 33 8 76 10 95
14 120 26 285 41 570 4 87 4 725 0 820 -7 134 -17 304 -21 345 -2 22 -7 76
-10 120 -4 44 -8 94 -10 110 -1 17 -6 59 -9 95 -4 36 -9 76 -11 90 -2 14 -7
50 -10 80 -4 30 -8 66 -10 80 -2 14 -7 45 -10 70 -3 25 -9 70 -15 100 -5 30
-11 71 -14 90 -3 19 -10 62 -16 95 -6 33 -13 76 -16 95 -28 172 -128 612 -195
860 -124 455 -340 1053 -520 1438 -21 46 -39 86 -39 88 0 8 -196 402 -243 489
-112 209 -127 234 -292 513 -45 76 -40 67 -194 302 -134 204 -420 604 -451
630 -3 3 -29 36 -59 74 -58 75 -68 87 -125 155 -21 25 -47 57 -59 71 -20 25
-132 154 -152 176 -5 6 -46 51 -90 100 -203 225 -509 528 -740 733 -66 58
-125 111 -131 116 -15 14 -181 154 -221 186 -10 8 -62 49 -114 90 -52 40 -98
77 -104 82 -107 86 -377 278 -580 411 -99 65 -192 127 -207 137 -15 11 -29 19
-32 19 -2 0 -33 18 -67 40 -457 284 -1052 575 -1624 795 -271 104 -808 278
-954 310 -9 2 -52 13 -96 25 -207 54 -534 124 -820 175 -33 5 -225 35 -265 40
-14 2 -43 6 -65 9 -22 3 -58 8 -80 10 -22 3 -56 8 -75 10 -33 5 -67 9 -205 22
-33 3 -73 7 -90 9 -16 2 -79 7 -140 10 -60 4 -126 9 -145 11 -19 2 -138 6
-265 10 -126 3 -265 7 -308 8 -43 1 -79 1 -80 0z m-1236 -4693 c70 -27 134
-88 167 -160 23 -50 38 -136 56 -316 4 -33 8 -76 11 -95 2 -19 7 -57 10 -85 3
-27 7 -66 10 -85 2 -19 7 -62 10 -95 5 -54 8 -84 20 -180 14 -114 20 -205 19
-300 0 -130 -19 -180 -94 -256 -56 -56 -118 -80 -195 -74 -125 9 -197 87 -255
280 -53 173 -63 201 -90 255 -125 247 -350 370 -730 397 -257 19 -476 7 -785
-42 -74 -12 -131 -49 -159 -103 -46 -89 -45 -48 -42 -2052 2 -1037 6 -1894 9
-1905 3 -11 8 -45 11 -76 4 -31 9 -67 12 -80 2 -13 9 -46 14 -74 41 -205 105
-373 170 -441 105 -113 285 -200 450 -218 25 -3 68 -8 96 -10 68 -8 163 -38
217 -69 166 -98 198 -308 64 -423 -73 -62 -116 -66 -452 -50 -55 3 -170 9
-255 13 -199 10 -1267 10 -1385 0 -49 -4 -110 -9 -135 -12 -62 -6 -177 -14
-285 -21 -49 -2 -115 -7 -145 -9 -70 -6 -240 -16 -304 -19 -148 -7 -260 57
-300 171 -31 93 -11 224 45 288 33 37 134 91 187 100 53 8 84 13 147 21 33 4
62 8 65 9 3 1 21 5 40 9 19 4 67 23 105 42 172 83 287 246 310 441 3 21 5
1012 5 2202 0 1528 -3 2175 -11 2201 -13 44 -63 81 -122 90 -23 3 -157 5 -297
4 -330 -2 -440 -10 -675 -50 -74 -12 -198 -49 -292 -85 -118 -47 -188 -101
-223 -176 -19 -40 -70 -194 -85 -253 -6 -28 -126 -404 -142 -450 -68 -188
-216 -270 -379 -209 -141 53 -184 146 -161 344 3 28 9 79 13 115 3 36 8 79 10
95 2 17 6 53 9 80 6 55 8 67 30 240 9 66 18 137 20 158 3 20 8 55 11 78 3 22
7 55 9 72 2 18 11 91 20 162 9 72 19 153 22 180 6 55 11 90 13 90 0 0 3 21 5
46 12 130 92 239 201 274 67 22 71 22 999 10 838 -10 1064 -13 1465 -21 550
-11 1041 -7 1495 11 33 1 164 6 290 10 127 4 264 8 305 10 41 1 176 6 300 10
124 3 226 7 227 8 1 1 57 2 125 1 99 -1 134 -6 179 -23z m-540 -2486 c57 -3
111 -8 119 -10 8 -2 49 -7 90 -10 41 -4 86 -8 100 -10 14 -1 57 -6 97 -10 40
-4 85 -8 100 -10 15 -2 66 -6 113 -10 47 -4 95 -8 107 -10 161 -25 828 -26
1003 0 14 2 66 6 115 10 50 3 110 8 135 10 119 10 304 23 430 30 52 3 115 7
140 10 97 9 288 19 355 18 137 -1 215 -42 266 -136 28 -53 31 -68 32 -146 1
-99 -19 -155 -72 -209 -43 -43 -93 -64 -226 -97 -169 -42 -241 -77 -335 -162
-50 -46 -77 -81 -103 -135 -75 -152 -71 -89 -73 -1188 -2 -856 0 -997 14
-1080 22 -133 32 -155 80 -167 22 -6 120 -11 218 -13 98 -1 256 -4 349 -6 411
-10 2484 -13 2545 -4 102 15 178 40 194 65 25 38 30 118 42 685 15 656 9 1377
-10 1409 -3 4 -7 20 -10 34 -8 48 -73 171 -118 223 -53 62 -143 132 -223 172
-66 33 -198 77 -260 86 -22 4 -47 8 -55 11 -8 2 -33 6 -55 10 -278 39 -407
108 -453 243 -6 18 -10 72 -9 120 2 71 7 96 29 137 50 95 133 146 243 148 60
1 217 -10 245 -18 8 -2 42 -6 75 -10 33 -3 74 -7 90 -10 17 -2 59 -6 95 -10
36 -3 81 -8 100 -10 230 -31 1270 -38 1450 -10 14 2 70 6 125 10 55 3 125 8
155 10 30 2 84 7 120 9 62 5 159 12 265 21 175 14 258 18 320 18 179 1 284
-97 291 -271 3 -81 -12 -144 -45 -190 -42 -60 -152 -114 -257 -128 -19 -2 -66
-15 -106 -29 -232 -81 -361 -239 -395 -483 -9 -65 -9 -5118 0 -5317 10 -233
102 -575 192 -721 50 -80 132 -160 209 -205 47 -27 140 -66 176 -74 112 -25
168 -35 235 -39 88 -7 168 -14 230 -22 101 -13 201 -92 226 -181 24 -87 -20
-234 -93 -310 -82 -85 -268 -123 -483 -99 -27 3 -75 8 -105 11 -56 6 -103 11
-185 20 -493 55 -640 63 -1095 64 -157 0 -314 -1 -350 -4 -36 -2 -114 -7 -175
-10 -60 -3 -121 -8 -135 -10 -21 -3 -119 -11 -235 -20 -30 -3 -137 -13 -205
-21 -246 -26 -396 -26 -468 1 -73 27 -125 74 -159 143 -25 51 -28 67 -27 152
1 75 6 105 23 142 38 82 126 138 241 152 61 8 192 56 250 91 183 113 276 296
306 605 15 158 27 847 28 1610 1 857 -7 906 -145 928 -70 11 -3089 8 -3144 -3
-130 -26 -155 -74 -161 -305 -9 -377 -2 -1964 9 -2015 3 -11 8 -45 12 -75 9
-72 48 -230 75 -306 55 -149 129 -269 213 -344 74 -67 215 -141 296 -156 12
-3 51 -11 85 -19 33 -8 102 -16 151 -19 185 -12 231 -18 274 -37 71 -31 107
-64 139 -128 55 -109 37 -250 -43 -339 -89 -100 -339 -140 -605 -98 -14 3 -57
7 -95 10 -39 4 -81 8 -95 10 -14 3 -59 7 -100 11 -41 4 -88 8 -105 10 -16 2
-68 7 -115 11 -47 3 -92 8 -100 9 -102 19 -975 27 -1190 12 -63 -5 -142 -11
-175 -13 -33 -2 -73 -6 -90 -8 -16 -2 -68 -7 -115 -11 -47 -4 -98 -9 -115 -10
-16 -2 -66 -6 -110 -10 -44 -3 -91 -8 -105 -10 -14 -3 -69 -7 -123 -9 -208
-11 -335 42 -390 164 -25 56 -33 206 -12 263 37 106 92 144 278 191 165 42
241 80 323 163 98 98 166 259 188 443 3 25 7 54 10 65 2 11 7 52 11 90 4 39 8
81 11 95 2 14 7 95 11 180 9 198 9 5022 0 5115 -9 96 -41 217 -73 276 -47 86
-136 166 -235 212 -39 18 -202 73 -314 106 -38 11 -115 33 -170 50 -55 16
-122 35 -150 42 -161 39 -256 148 -256 292 0 74 7 108 33 160 25 49 55 83 97
109 36 23 125 47 152 42 9 -1 63 -5 120 -9z"/>
</g>
</svg>
